<svg xmlns="http://www.w3.org/2000/svg" viewBox="0 0 253.03 102.52"><defs><style>.cls-1{fill:#e53c30;}.cls-2{fill:#fff;}</style></defs><g id="Layer_2" data-name="Layer 2"><g id="Layer_1-2" data-name="Layer 1"><rect class="cls-1" width="253.03" height="102.52"/><path class="cls-2" d="M96,74.5H75.33v6.32H89.68l0,.34c-1.93,5.51-6.36,8.68-13.36,8.68-8.07,0-14.17-6.47-14.17-14.66C62.17,66.67,68.51,60,76.93,60c6.44,0,11,3.16,13.64,8.82L96.51,66c-3.67-7.94-10.62-12.31-19.58-12.31A21.14,21.14,0,0,0,55.65,75.19a20.58,20.58,0,0,0,20.7,20.9,17.72,17.72,0,0,0,13.93-6.26l.59,4.76H96V74.5Z"/><polygon class="cls-2" points="96.01 40.24 63.3 40.24 63.3 29.8 92.25 29.8 92.25 23.74 63.3 23.74 63.3 13.3 96.01 13.3 96.01 7.08 56.63 7.08 56.63 46.45 96.01 46.45 96.01 40.24"/><polygon class="cls-2" points="41.16 23.35 15.17 23.35 15.17 7.08 8.51 7.08 8.51 46.45 15.17 46.45 15.17 29.63 41.16 29.63 41.16 46.45 47.89 46.45 47.89 7.08 41.16 7.08 41.16 23.35"/><polygon class="cls-2" points="31.53 88.31 31.53 61.48 47.89 61.48 47.89 55.21 8.51 55.21 8.51 61.48 24.86 61.48 24.86 88.31 8.51 88.31 8.51 94.59 47.89 94.59 47.89 88.31 31.53 88.31"/><path class="cls-2" d="M112.52,7.05h2.53l-3.91,10.7h-2.45l-3.92-10.7h2.62L110,14.57Z"/><path class="cls-2" d="M117.27,17.75V7.05h3.88a5,5,0,0,1,5.37,5.36,5,5,0,0,1-5.39,5.34Zm3.78-2.25a2.8,2.8,0,0,0,3-3.09,2.81,2.81,0,0,0-3-3.11h-1.39v6.2Z"/></g></g></svg>